<?xml version="1.0" encoding="utf-8"?>
<!-- Generator: Adobe Illustrator 27.0.0, SVG Export Plug-In . SVG Version: 6.00 Build 0)  -->
<svg version="1.1" id="Layer_1" xmlns="http://www.w3.org/2000/svg" xmlns:xlink="http://www.w3.org/1999/xlink" x="0px" y="0px"
	 viewBox="0 0 700 700" style="enable-background:new 0 0 700 700;" xml:space="preserve">
<style type="text/css">
	.st0{fill:#F4F4F4;}
	.st1{fill-rule:evenodd;clip-rule:evenodd;fill:#23485C;}
</style>
<g>
	<g>
		<path d="M632.7,342.1L684,232c10.4-22.4,5.8-49.3-11.7-66.8l-52.5-52.9c-11.2-11.2-26-17.5-41.9-17.5l-102.7-0.4
			c-2.4-0.2-4.8-0.4-7.3-0.4L242.3,93c-0.1,0-0.2,0-0.3,0c0,0,0,0,0,0c-2.6,0-5.1,0.2-7.7,0.4c-0.7,0-1.4-0.1-2-0.1L137.6,93
			c0,0-0.2,0-0.2,0c-16.6,0-32.1,6.4-43.9,18.2L28.6,176C10.4,194.2,5.3,222.2,16,245.6l51.2,112.3L16,468
			c-10.4,22.4-5.8,49.3,11.7,66.8l52.5,52.9c11.2,11.2,26,17.5,41.9,17.5l102.7,0.4c2.4,0.2,4.8,0.4,7.3,0.4l225.7,0.9
			c0.1,0,0.2,0,0.3,0c2.6,0,5.1-0.2,7.7-0.4c0.7,0,1.4,0.1,2,0.1l94.7,0.4c16.8,0,32.4-6.4,44.1-18.2l64.9-64.8
			c18.2-18.2,23.3-46.2,12.6-69.7L632.7,342.1z M592.8,139.1l52.5,52.9c6.3,6.3,7.9,15.9,4.2,23.9l-37.5,80.6L541,141.1
			c-1.3-2.9-2.9-5.7-4.5-8.4l41.3,0.2C583.4,132.8,588.8,135.1,592.8,139.1z M464.7,568.3c-7-1.1-13.1-5.6-16.1-12.2l-84.9-186
			c-1.9-4.1-5.8-6.2-9.7-6.2c-3.9,0-7.7,2-9.6,6.1l-86.3,185.4c-3.5,7.5-11,12.3-19.2,12.3c0,0-0.1,0-0.1,0l-11.7,0
			c-14.5-1.8-27.2-10.9-33.4-24.5l-84.4-185.1l94.3-202.4c6-12.9,18-21.8,31.8-24c7,1.1,13.1,5.6,16.1,12.2l84.9,186
			c1.9,4.1,5.8,6.2,9.7,6.2c3.9,0,7.7-2,9.6-6.1l86.3-185.4c3.5-7.5,11-12.3,19.2-12.3c0,0,0.1,0,0.1,0l11.7,0
			c14.5,1.8,27.2,10.9,33.4,24.5l84.4,185.1l-94.3,202.4C490.5,557.2,478.5,566.1,464.7,568.3z M412.5,568.7l-118.3-0.5l59.7-128.1
			L412.5,568.7z M287.5,131.3l118.3,0.5l-59.7,128.1L287.5,131.3z M50.7,229.8c-4.2-9.1-2.2-19.8,4.9-26.9l64.9-64.8
			c4.5-4.5,10.6-7,16.9-7c0,0,0.1,0,0.1,0l36.1,0.1c-1.7,2.7-3.2,5.5-4.6,8.4L88.4,312.5L50.7,229.8z M107.2,560.9L54.7,508
			c-6.3-6.3-7.9-15.9-4.2-23.9l37.5-80.6L159,558.9c1.3,2.9,2.9,5.7,4.5,8.4l-41.3-0.2C116.6,567.2,111.2,564.9,107.2,560.9z
			 M644.4,497.1l-64.9,64.8c-4.5,4.5-10.6,7-16.9,7c0,0-0.1,0-0.1,0l-36.1-0.1c1.7-2.7,3.2-5.5,4.6-8.4l80.5-172.9l37.7,82.7
			C653.5,479.3,651.5,490,644.4,497.1z"/>
	</g>
</g>
</svg>
