<?xml version="1.0" encoding="utf-8"?>
<!-- Generator: Adobe Illustrator 27.0.0, SVG Export Plug-In . SVG Version: 6.00 Build 0)  -->
<svg version="1.1" id="Layer_1" xmlns="http://www.w3.org/2000/svg" xmlns:xlink="http://www.w3.org/1999/xlink" x="0px" y="0px"
	 viewBox="0 0 1916.4 1077.3" style="enable-background:new 0 0 1916.4 1077.3;" xml:space="preserve">
<style type="text/css">
	.st0{fill:#F4F4F4;}
	.st1{fill-rule:evenodd;clip-rule:evenodd;fill:#23485C;}
</style>
<g>
	<g>
		<path d="M1009.6,475.2l9.4-20.2c1.9-4.1,1.1-9.1-2.1-12.3l-9.6-9.7c-2.1-2.1-4.8-3.2-7.7-3.2l-18.9-0.1c-0.4,0-0.9-0.1-1.3-0.1
			l-41.5-0.2c0,0,0,0-0.1,0c0,0,0,0,0,0c-0.5,0-0.9,0-1.4,0.1c-0.1,0-0.3,0-0.4,0l-17.4-0.1c0,0,0,0,0,0c-3,0-5.9,1.2-8.1,3.3
			l-11.9,11.9c-3.4,3.3-4.3,8.5-2.3,12.8l9.4,20.6l-9.4,20.2c-1.9,4.1-1.1,9.1,2.1,12.3l9.6,9.7c2.1,2.1,4.8,3.2,7.7,3.2l18.9,0.1
			c0.4,0,0.9,0.1,1.3,0.1l41.5,0.2c0,0,0,0,0.1,0c0.5,0,0.9,0,1.4-0.1c0.1,0,0.3,0,0.4,0l17.4,0.1c3.1,0,6-1.2,8.1-3.3l11.9-11.9
			c3.4-3.3,4.3-8.5,2.3-12.8L1009.6,475.2z M1002.2,437.9l9.6,9.7c1.2,1.2,1.5,2.9,0.8,4.4l-6.9,14.8l-13-28.6
			c-0.2-0.5-0.5-1-0.8-1.5l7.6,0C1000.5,436.7,1001.5,437.1,1002.2,437.9z M978.7,516.7c-1.3-0.2-2.4-1-3-2.2l-15.6-34.2
			c-0.3-0.8-1.1-1.1-1.8-1.1c-0.7,0-1.4,0.4-1.8,1.1l-15.9,34.1c-0.6,1.4-2,2.3-3.5,2.3c0,0,0,0,0,0l-2.1,0c-2.7-0.3-5-2-6.1-4.5
			l-15.5-34l17.3-37.2c1.1-2.4,3.3-4,5.8-4.4c1.3,0.2,2.4,1,3,2.2l15.6,34.2c0.3,0.8,1.1,1.1,1.8,1.1c0.7,0,1.4-0.4,1.8-1.1
			l15.9-34.1c0.6-1.4,2-2.3,3.5-2.3c0,0,0,0,0,0l2.1,0c2.7,0.3,5,2,6.1,4.5l15.5,34l-17.3,37.2C983.4,514.7,981.2,516.3,978.7,516.7
			z M969.1,516.8l-21.7-0.1l11-23.5L969.1,516.8z M946.1,436.4l21.7,0.1l-11,23.5L946.1,436.4z M902.6,454.5
			c-0.8-1.7-0.4-3.6,0.9-4.9l11.9-11.9c0.8-0.8,1.9-1.3,3.1-1.3c0,0,0,0,0,0l6.6,0c-0.3,0.5-0.6,1-0.8,1.5l-14.8,31.8L902.6,454.5z
			 M913,515.4l-9.6-9.7c-1.2-1.2-1.5-2.9-0.8-4.4l6.9-14.8l13,28.6c0.2,0.5,0.5,1,0.8,1.5l-7.6,0C914.7,516.5,913.7,516.1,913,515.4
			z M1011.7,503.6l-11.9,11.9c-0.8,0.8-1.9,1.3-3.1,1.3c0,0,0,0,0,0l-6.6,0c0.3-0.5,0.6-1,0.8-1.5l14.8-31.8l6.9,15.2
			C1013.4,500.4,1013,502.3,1011.7,503.6z"/>
		<g>
			<path d="M518.5,598.5c0-30.8,15-50.9,43-50.9c22.2,0,38.2,10.5,40,33.6h-16.9c-1.3-15.6-10.9-20.1-24.1-20.1s-24.2,7.7-24.2,22.6
				v28.2c0,13.7,10.2,22.6,24.4,22.6s23.5-6.6,24.6-20.9h16.9c-2.6,23.7-19.7,34.4-41.2,34.4C531.4,647.9,518.5,627,518.5,598.5z"/>
			<path d="M652.1,647.9c-17.7,0-31-9.6-31-34.2v-63.9H638v62c0,13.7,4.5,22.6,18.8,22.6s23.3-11.8,23.3-28.6v-56H697v95.9h-16.9
				v-15.8C674.8,641.1,666.6,647.9,652.1,647.9z"/>
			<path d="M762.7,561c-13.9,0-23.9,11.8-23.9,28.6v56h-16.9v-95.9h16.9v15.8c5.3-11.1,14.1-18,28.6-18c18.6,0,31.2,9.8,31.2,34.2
				v63.9h-16.9v-62C781.7,569.7,777.2,561,762.7,561z"/>
			<path d="M817.6,597.7c0-29.3,13.9-50.2,43-50.2c29.1,0,42.7,20.3,42.7,45.9v9h-68.1v10.2c0,13.2,11.7,21.8,25.4,21.8
				c13.7,0,24.1-6,25.2-19.2h16.7c-1.7,20.5-19.7,32.7-41.9,32.7C831.5,647.9,817.6,627,817.6,597.7z M886,588.9v-5.3
				c0-14.1-10.9-22.6-25.4-22.6c-13.7,0-25.4,8.6-25.4,22.6v5.3H886z"/>
			<path d="M1029.1,564.2h-22.3v-14.5h22.3v-32h54.9v14.5h-38.2v17.5h36.3v14.5h-36.3v81.4h-16.7V564.2z"/>
			<path d="M1093,597.7c0-29.3,13.9-50.2,43-50.2s43,20.9,43,50.2c0,29.3-13.9,50.2-43,50.2S1093,627,1093,597.7z M1161.2,612.6
				v-29.7c0-13.2-11.7-21.8-25.2-21.8s-25.2,8.6-25.2,21.8v29.7c0,13.2,11.7,21.8,25.2,21.8S1161.2,625.7,1161.2,612.6z"/>
			<path d="M1188.7,631.2h23.1v-81.4h54.5v14.5h-37.6v66.9h32v14.5h-72V631.2z"/>
			<path d="M1288,549.8h15.9v12c2.7-8.6,9.4-14.3,21.8-14.3c11,0,20,4.7,22.4,16c2.5-9.4,11-16,23.8-16c15,0,26,7,26,24.1v74.1
				h-18.6v-74.1c0-6.4-3.6-10.5-11.7-10.5c-7.9,0-15.5,5.6-15.5,14.9v69.7h-18.6v-74.1c0-6.4-3.6-10.5-11.7-10.5
				c-7.9,0-15.3,5.6-15.3,14.9v69.7H1288V549.8z"/>
			<polygon points="966.9,631.8 966.9,549.7 949.5,549.7 949.5,631.8 919.3,631.8 919.3,645.9 949.5,645.9 966.9,645.9 997.1,645.9 
				997.1,631.8 			"/>
		</g>
	</g>
</g>
</svg>
